<?xml version="1.0" encoding="utf-8"?>
<!-- Generator: Adobe Illustrator 27.6.1, SVG Export Plug-In . SVG Version: 6.00 Build 0)  -->
<svg version="1.1" id="Layer_1" xmlns="http://www.w3.org/2000/svg" xmlns:xlink="http://www.w3.org/1999/xlink" x="0px" y="0px"
	 viewBox="0 0 1280 1280" style="enable-background:new 0 0 1280 1280;" xml:space="preserve">
<g>
	<path d="M656.3,681.6V1216c0,0,0,0,48.2,0c295.1,0,534.4-239.3,534.4-534.4H656.3z M808.6,832.8h67.3h179.5
		c-1.2,2.8-2.4,5.5-3.7,8.3c-16.2,31.8-35.6,61.8-57.6,89.7c-48.2,56-112.4,97.9-185.5,118.5V900.2V832.8z"/>
	<path d="M474.1,73.3c-196,36-387.5,227.4-423.6,423.4c-62.6,339.8,196.6,636,524.9,636c0,0,0.1,0,0.1-0.1V980.4c0,0-0.1,0-0.1,0
		V599.6c0,0,0-0.1,0.1-0.1h148c0,0,0.1,0,0.1-0.1v-90.2c0,0,0-0.1-0.1-0.1h-148c0,0-0.1,0-0.1-0.1v-60.8c0,0,0-0.1,0.1-0.1h168.9
		c0,0,0.1,0,0.1-0.1v-89.9c0,0,0-0.1-0.1-0.1H575.4H455.6h-32.4c0,0-0.1,0-0.1,0.1v590.4c0,0.1-0.1,0.1-0.1,0.1
		c-129.3-56.4-221.3-182.2-229-330.3C182.5,395.3,365.6,209,588.8,216.6c204.8,7,368.8,175.3,368.8,381.8c0,0.4,0,0.8,0,1.2h152.3
		c0,0,0,0,0.1-0.1C1110.6,270.6,814.2,10.8,474.1,73.3z"/>
</g>
</svg>
