<?xml version="1.0" encoding="utf-8"?>
<!-- Generator: Adobe Illustrator 27.6.1, SVG Export Plug-In . SVG Version: 6.00 Build 0)  -->
<svg version="1.1" id="Layer_1" xmlns="http://www.w3.org/2000/svg" xmlns:xlink="http://www.w3.org/1999/xlink" x="0px" y="0px"
	 viewBox="0 0 185.2 22.3" style="enable-background:new 0 0 185.2 22.3;" xml:space="preserve">
<style type="text/css">
	.st0{display:none;}
	.st1{display:inline;}
	.st2{fill:#333333;}
	.st3{fill:#3E54FF;}
</style>
<g class="st0">
	<g class="st1">
		<path class="st2" d="M32.5,11.1c0.5,0.6,0.7,1.2,0.7,2c0,1.1-0.4,1.9-1.1,2.5c-0.7,0.6-1.7,0.9-3.1,0.9h-5.4V3.9h5.3
			c1.3,0,2.3,0.3,3,0.8c0.7,0.6,1,1.4,1,2.4c0,0.8-0.2,1.4-0.6,1.9c-0.4,0.5-1,0.8-1.6,1C31.4,10.2,32,10.5,32.5,11.1z M26.1,9.2
			h2.3c0.6,0,1.1-0.1,1.4-0.4c0.3-0.3,0.5-0.7,0.5-1.2s-0.2-0.9-0.5-1.2C29.5,6,29,5.9,28.3,5.9h-2.2C26.1,5.9,26.1,9.2,26.1,9.2z
			 M30,14c0.4-0.3,0.5-0.7,0.5-1.3s-0.2-1-0.5-1.3c-0.4-0.3-0.9-0.5-1.6-0.5H26v3.5h2.4C29.2,14.5,29.7,14.3,30,14z"/>
		<path class="st2" d="M35.1,2.7c0.3-0.3,0.7-0.4,1.1-0.4s0.8,0.1,1.1,0.4s0.4,0.6,0.4,1s-0.1,0.7-0.4,1s-0.7,0.4-1.1,0.4
			S35.4,5,35.1,4.7c-0.3-0.3-0.4-0.6-0.4-1C34.6,3.3,34.8,3,35.1,2.7z M37.5,6.6v9.9H35V6.6H37.5z"/>
		<path class="st2" d="M41.8,14.4h4.9v2.1H39v-2l4.6-5.8h-4.5V6.6h7.4v2L41.8,14.4z"/>
		<path class="st2" d="M51.6,5.2c-0.3,0.3-0.4,0.7-0.4,1.4l0,0h2v2.1h-2v7.8h-2.5V8.7h-1.3V6.6h1.3V6.4c0-1.2,0.3-2.1,1-2.7
			s1.7-1,3-1c0.2,0,0.4,0,0.5,0v2.2C52.4,4.8,51.9,4.9,51.6,5.2z"/>
		<path class="st2" d="M54.8,2.7c0.3-0.3,0.7-0.4,1.1-0.4s0.8,0.1,1.1,0.4s0.4,0.6,0.4,1s-0.1,0.7-0.4,1c-0.2,0.3-0.6,0.4-1,0.4
			S55.1,5,54.8,4.7s-0.4-0.6-0.4-1C54.4,3.3,54.5,3,54.8,2.7z M57.2,6.6v9.9h-2.5V6.6H57.2z"/>
		<path class="st2" d="M68.2,7.6c0.7,0.8,1,1.8,1,3.2v5.8h-2.5V11c0-0.8-0.2-1.4-0.6-1.8c-0.4-0.4-1-0.7-1.7-0.7
			c-0.7,0-1.3,0.2-1.7,0.7s-0.6,1.1-0.6,2v5.3h-2.5V6.6H62v2c0.3-0.7,0.7-1.2,1.3-1.6s1.3-0.6,2.1-0.6C66.6,6.4,67.5,6.8,68.2,7.6z"
			/>
		<path class="st2" d="M71.6,2.7c0.3-0.3,0.7-0.4,1.1-0.4s0.8,0.1,1.1,0.4s0.4,0.6,0.4,1s-0.1,0.7-0.4,1s-0.7,0.4-1.1,0.4
			S71.9,5,71.6,4.7s-0.4-0.6-0.4-1C71.1,3.3,71.3,3,71.6,2.7z M73.9,6.6v9.9h-2.5V6.6H73.9z"/>
		<path class="st2" d="M81.6,14.4v2.2h-1.3c-1.1,0-2-0.3-2.6-0.8c-0.6-0.5-0.9-1.4-0.9-2.7V8.7h-1.4V6.6h1.4V4.1h2.5v2.5h2.2v2.1
			h-2.2V13c0,0.5,0.1,0.8,0.3,1c0.2,0.2,0.5,0.3,1,0.3L81.6,14.4L81.6,14.4z"/>
		<path class="st2" d="M85.1,6.6l2.7,6.7l2.5-6.7h2.8L87,21.3h-2.8l2.2-5l-4.2-9.7C82.2,6.6,85.1,6.6,85.1,6.6z"/>
	</g>
	<g class="st1">
		<path class="st3" d="M19.4,14.8l-3.7-6.7C15,7,13.4,7,12.8,8.2l-2.2,4c-0.3,0.5-0.3,1.1,0,1.6l1.5,2.7c0.3,0.5,0.8,0.8,1.4,0.8
			h4.4C19.2,17.2,20,15.9,19.4,14.8z"/>
		<path class="st3" d="M10.7,15.5L10.7,15.5c-0.4-0.8-1.6-0.8-2.1,0l0,0c-0.4,0.8,0.1,1.7,1,1.7l0,0C10.6,17.2,11.2,16.3,10.7,15.5z
			"/>
		<polygon class="st3" points="9.5,0.8 0.4,17.2 6.7,17.2 12.7,6.5 		"/>
	</g>
</g>
<g>
	<g>
		<path class="st3" d="M12.8,11.9v9.6c0,0,0,0,0.9,0c5.3,0,9.6-4.3,9.6-9.6H12.8z M15.5,14.6h1.2H20c0,0,0,0.1-0.1,0.1
			c-0.3,0.6-0.6,1.1-1,1.6c-0.9,1-2,1.8-3.3,2.1v-2.7V14.6z"/>
		<path class="st3" d="M9.5,1C6,1.6,2.6,5.1,1.9,8.6C0.8,14.7,5.4,20,11.3,20c0,0,0,0,0,0v-2.7c0,0,0,0,0,0v-6.8c0,0,0,0,0,0H14
			c0,0,0,0,0,0V8.8c0,0,0,0,0,0h-2.7c0,0,0,0,0,0V7.7c0,0,0,0,0,0h3c0,0,0,0,0,0V6.1c0,0,0,0,0,0h-3H9.2H8.6c0,0,0,0,0,0v10.6
			c0,0,0,0,0,0c-2.3-1-4-3.3-4.1-5.9c-0.2-4,3.1-7.4,7.1-7.2c3.7,0.1,6.6,3.1,6.6,6.9c0,0,0,0,0,0H21c0,0,0,0,0,0
			C21,4.5,15.6-0.2,9.5,1z"/>
	</g>
	<g>
		<path d="M33.3,10h3.5v5c-0.7,0.5-1.5,0.9-2.4,1.1c-0.9,0.3-1.8,0.4-2.7,0.4c-1.3,0-2.4-0.3-3.4-0.8c-1-0.5-1.8-1.3-2.4-2.2
			c-0.6-0.9-0.9-2-0.9-3.2c0-1.2,0.3-2.3,0.9-3.2c0.6-0.9,1.4-1.7,2.4-2.2c1-0.5,2.2-0.8,3.5-0.8c1.2,0,2.2,0.2,3.1,0.6
			c0.9,0.4,1.7,1,2.3,1.7l-2.6,2.3c-0.7-0.9-1.6-1.3-2.7-1.3c-0.9,0-1.6,0.3-2.1,0.8C29.3,8.6,29,9.4,29,10.3c0,0.9,0.3,1.6,0.8,2.2
			c0.5,0.5,1.2,0.8,2.1,0.8c0.5,0,1-0.1,1.5-0.3V10z"/>
		<path d="M40.5,15.8c-0.8-0.4-1.5-1-1.9-1.7c-0.5-0.7-0.7-1.6-0.7-2.5c0-0.9,0.2-1.8,0.7-2.5c0.5-0.7,1.1-1.3,1.9-1.7
			c0.8-0.4,1.7-0.6,2.8-0.6c1,0,2,0.2,2.8,0.6c0.8,0.4,1.5,1,1.9,1.7c0.5,0.7,0.7,1.6,0.7,2.5c0,0.9-0.2,1.8-0.7,2.5
			c-0.5,0.7-1.1,1.3-1.9,1.7c-0.8,0.4-1.7,0.6-2.8,0.6C42.2,16.4,41.3,16.2,40.5,15.8z M44.3,12.9c0.3-0.3,0.4-0.8,0.4-1.3
			c0-0.6-0.1-1-0.4-1.3c-0.3-0.3-0.6-0.5-1.1-0.5s-0.8,0.2-1.1,0.5c-0.3,0.3-0.4,0.8-0.4,1.3c0,0.6,0.1,1,0.4,1.3
			c0.3,0.3,0.6,0.5,1.1,0.5S44.1,13.2,44.3,12.9z"/>
		<path class="st3" d="M54,7.4v2h4.9v3H54v3.8h-4V4.3h9.6v3H54z"/>
		<path class="st3" d="M67.2,6.8v3.4c-0.3,0-0.6-0.1-0.8-0.1c-1.3,0-2,0.7-2,2v4.1h-3.8V6.9h3.6v1C64.9,7.2,65.9,6.8,67.2,6.8z"/>
		<path class="st3" d="M76.1,7.9c0.9,0.7,1.3,1.8,1.3,3.4v5h-3.6V15c-0.4,0.9-1.3,1.4-2.6,1.4c-0.7,0-1.4-0.1-1.9-0.4
			c-0.5-0.3-0.9-0.6-1.2-1c-0.3-0.4-0.4-0.9-0.4-1.5c0-0.9,0.3-1.6,1-2.1c0.7-0.5,1.8-0.7,3.2-0.7h1.5c-0.1-0.7-0.7-1.1-1.7-1.1
			c-0.4,0-0.8,0.1-1.3,0.2c-0.4,0.1-0.8,0.3-1.1,0.5l-1.2-2.5c0.5-0.3,1.2-0.6,1.9-0.8c0.8-0.2,1.5-0.3,2.2-0.3
			C74,6.8,75.2,7.1,76.1,7.9z M73.1,13.8c0.2-0.1,0.4-0.4,0.5-0.7v-0.6h-0.9c-0.8,0-1.2,0.3-1.2,0.8c0,0.2,0.1,0.4,0.2,0.5
			c0.2,0.1,0.4,0.2,0.7,0.2C72.6,14.1,72.9,14,73.1,13.8z"/>
		<path class="st3" d="M81.4,15.8c-0.8-0.4-1.5-1-1.9-1.7c-0.5-0.7-0.7-1.6-0.7-2.5c0-0.9,0.2-1.8,0.7-2.5c0.5-0.7,1.1-1.3,1.9-1.7
			c0.8-0.4,1.8-0.6,2.8-0.6c1.1,0,2.1,0.2,2.9,0.7c0.8,0.5,1.4,1.2,1.7,2l-3,1.5c-0.4-0.8-0.9-1.2-1.6-1.2c-0.5,0-0.8,0.2-1.1,0.5
			c-0.3,0.3-0.4,0.8-0.4,1.3c0,0.6,0.1,1,0.4,1.4c0.3,0.3,0.7,0.5,1.1,0.5c0.7,0,1.2-0.4,1.6-1.2l3,1.5c-0.3,0.9-0.9,1.5-1.7,2
			c-0.8,0.5-1.8,0.7-2.9,0.7C83.1,16.4,82.2,16.2,81.4,15.8z"/>
		<path class="st3" d="M96.6,15.9c-0.6,0.3-1.4,0.5-2.4,0.5c-1.3,0-2.3-0.3-3-0.9c-0.7-0.6-1-1.6-1-2.8v-2.4H89V7.4h1.3V4.9h3.8v2.6
			h1.9v2.8h-1.9v2.3c0,0.3,0.1,0.5,0.2,0.7c0.1,0.2,0.3,0.2,0.6,0.2c0.3,0,0.6-0.1,0.9-0.3L96.6,15.9z"/>
		<path class="st3" d="M97.8,5.6c-0.4-0.4-0.6-0.8-0.6-1.4c0-0.6,0.2-1,0.6-1.4c0.4-0.4,1-0.6,1.7-0.6c0.7,0,1.3,0.2,1.7,0.5
			c0.4,0.4,0.6,0.8,0.6,1.4c0,0.6-0.2,1.1-0.6,1.4c-0.4,0.4-1,0.6-1.7,0.6C98.8,6.2,98.3,6,97.8,5.6z M97.6,6.9h3.8v9.3h-3.8V6.9z"
			/>
		<path class="st3" d="M105.2,15.8c-0.8-0.4-1.5-1-1.9-1.7c-0.5-0.7-0.7-1.6-0.7-2.5c0-0.9,0.2-1.8,0.7-2.5c0.5-0.7,1.1-1.3,1.9-1.7
			c0.8-0.4,1.7-0.6,2.8-0.6c1,0,2,0.2,2.8,0.6c0.8,0.4,1.5,1,1.9,1.7c0.5,0.7,0.7,1.6,0.7,2.5c0,0.9-0.2,1.8-0.7,2.5
			c-0.5,0.7-1.1,1.3-1.9,1.7c-0.8,0.4-1.7,0.6-2.8,0.6C107,16.4,106.1,16.2,105.2,15.8z M109.1,12.9c0.3-0.3,0.4-0.8,0.4-1.3
			c0-0.6-0.1-1-0.4-1.3c-0.3-0.3-0.6-0.5-1.1-0.5c-0.4,0-0.8,0.2-1.1,0.5c-0.3,0.3-0.4,0.8-0.4,1.3c0,0.6,0.1,1,0.4,1.3
			c0.3,0.3,0.6,0.5,1.1,0.5C108.4,13.4,108.8,13.2,109.1,12.9z"/>
		<path class="st3" d="M123.8,7.8c0.7,0.7,1,1.7,1,3.1v5.3H121v-4.6c0-1.1-0.4-1.6-1.1-1.6c-0.4,0-0.8,0.1-1,0.4
			c-0.3,0.3-0.4,0.8-0.4,1.4v4.4h-3.8V6.9h3.6v0.9c0.4-0.4,0.8-0.6,1.3-0.8c0.5-0.2,1-0.3,1.5-0.3C122.2,6.8,123.1,7.1,123.8,7.8z"
			/>
		<path class="st3" d="M134.4,7.9c0.9,0.7,1.3,1.8,1.3,3.4v5h-3.6V15c-0.4,0.9-1.3,1.4-2.6,1.4c-0.7,0-1.4-0.1-1.9-0.4
			c-0.5-0.3-0.9-0.6-1.2-1c-0.3-0.4-0.4-0.9-0.4-1.5c0-0.9,0.3-1.6,1-2.1c0.7-0.5,1.8-0.7,3.2-0.7h1.5c-0.1-0.7-0.7-1.1-1.7-1.1
			c-0.4,0-0.8,0.1-1.3,0.2c-0.4,0.1-0.8,0.3-1.1,0.5l-1.2-2.5c0.5-0.3,1.2-0.6,1.9-0.8c0.8-0.2,1.5-0.3,2.2-0.3
			C132.3,6.8,133.5,7.1,134.4,7.9z M131.3,13.8c0.2-0.1,0.4-0.4,0.5-0.7v-0.6h-0.9c-0.8,0-1.2,0.3-1.2,0.8c0,0.2,0.1,0.4,0.2,0.5
			c0.2,0.1,0.4,0.2,0.7,0.2C130.9,14.1,131.1,14,131.3,13.8z"/>
		<path class="st3" d="M137.3,3.6h3.8v12.6h-3.8V3.6z"/>
		<path d="M154.6,4.3v11.9h-3.3l-4.5-5.4v5.4h-3.9V4.3h3.3l4.5,5.4V4.3H154.6z"/>
		<path d="M158.6,15.8c-0.8-0.4-1.5-1-1.9-1.7c-0.5-0.7-0.7-1.6-0.7-2.5c0-0.9,0.2-1.8,0.7-2.5c0.5-0.7,1.1-1.3,1.9-1.7
			c0.8-0.4,1.7-0.6,2.8-0.6c1,0,2,0.2,2.8,0.6c0.8,0.4,1.5,1,1.9,1.7c0.5,0.7,0.7,1.6,0.7,2.5c0,0.9-0.2,1.8-0.7,2.5
			c-0.5,0.7-1.1,1.3-1.9,1.7c-0.8,0.4-1.7,0.6-2.8,0.6C160.3,16.4,159.4,16.2,158.6,15.8z M162.4,12.9c0.3-0.3,0.4-0.8,0.4-1.3
			c0-0.6-0.1-1-0.4-1.3c-0.3-0.3-0.6-0.5-1.1-0.5s-0.8,0.2-1.1,0.5c-0.3,0.3-0.4,0.8-0.4,1.3c0,0.6,0.1,1,0.4,1.3
			c0.3,0.3,0.6,0.5,1.1,0.5S162.1,13.2,162.4,12.9z"/>
		<path d="M183.5,6.9l-3.2,9.3h-3.7l-1.4-4.3l-1.5,4.3h-3.7l-3.2-9.3h3.6l1.6,4.9l1.7-4.9h3.3l1.6,4.9l1.7-4.9H183.5z"/>
	</g>
</g>
</svg>
